<?xml version="1.0" standalone="no"?>
<!DOCTYPE svg PUBLIC "-//W3C//DTD SVG 20010904//EN"
 "http://www.w3.org/TR/2001/REC-SVG-20010904/DTD/svg10.dtd">
<svg version="1.0" xmlns="http://www.w3.org/2000/svg"
 width="840.000000pt" height="859.000000pt" viewBox="0 0 840.000000 859.000000"
 preserveAspectRatio="xMidYMid meet">

<g transform="translate(0.000000,859.000000) scale(0.100000,-0.100000)"
fill="currentColor" stroke="none">
<path d="M7920 5450 c-113 -66 -168 -71 -343 -36 -215 43 -340 32 -487 -45
-130 -67 -231 -183 -286 -329 -26 -70 -28 -85 -28 -220 -1 -171 12 -228 82
-370 38 -79 61 -110 131 -181 167 -167 337 -215 618 -173 194 28 557 131 628
178 44 29 145 199 145 244 0 55 -48 102 -105 102 -14 0 -73 -14 -132 -30 -209
-60 -488 -86 -601 -56 -106 27 -147 67 -162 159 -19 119 18 246 93 319 32 31
47 38 79 38 82 0 138 -49 138 -119 0 -12 7 -38 16 -60 20 -51 67 -74 151 -75
87 -1 113 25 153 155 21 67 41 110 65 139 41 49 51 102 35 190 -15 85 -47 148
-84 171 -40 24 -63 24 -106 -1z m61 -187 l15 -58 -42 -68 c-24 -38 -55 -102
-70 -143 -29 -82 -51 -94 -68 -39 -40 134 -79 186 -159 210 -162 48 -280 -15
-365 -193 -37 -76 -37 -78 -37 -207 0 -116 3 -136 24 -183 73 -161 252 -215
581 -178 125 15 324 55 351 72 5 3 9 3 9 -1 0 -9 -52 -90 -64 -97 -20 -14
-250 -86 -358 -112 -224 -55 -374 -67 -487 -41 -91 22 -156 60 -233 138 -114
115 -178 278 -178 453 0 142 37 245 119 336 130 145 319 192 541 136 55 -14
118 -21 180 -22 82 -1 103 3 155 25 33 15 62 27 66 28 3 0 12 -25 20 -56z"/>
<path d="M6480 5430 c-93 -14 -177 -19 -271 -17 -155 2 -157 2 -211 -82 -52
-83 -28 -173 56 -201 37 -12 65 -39 92 -90 17 -31 19 -58 18 -235 -1 -164 -5
-219 -23 -304 -24 -112 -65 -215 -99 -245 -34 -30 -46 -79 -32 -136 23 -94 94
-161 156 -146 14 4 45 27 67 53 49 53 89 75 178 98 86 23 181 23 247 1 50 -17
56 -17 96 -2 51 20 79 47 101 100 26 62 14 92 -65 169 -116 112 -114 106 -103
408 9 230 12 260 31 301 15 30 35 52 62 67 22 12 46 32 55 44 20 28 18 91 -3
146 -34 88 -116 105 -352 71z m229 -148 c-8 -3 -34 -26 -60 -51 -66 -69 -78
-118 -90 -391 -6 -124 -9 -250 -7 -280 6 -76 44 -153 117 -232 67 -73 66 -88
-5 -68 -28 8 -81 11 -151 8 -129 -7 -228 -37 -315 -97 -45 -31 -58 -36 -62
-24 -4 8 5 28 19 45 83 98 131 294 142 573 7 180 -4 270 -42 344 -25 50 -98
124 -134 136 -14 4 -19 11 -14 20 6 11 56 15 228 19 121 3 254 11 295 19 65
11 76 11 84 -2 6 -10 5 -16 -5 -19z"/>
<path d="M5706 5397 c-48 -31 -53 -32 -155 -31 -69 1 -141 9 -206 24 -137 30
-318 37 -409 16 -208 -49 -356 -199 -413 -416 -26 -102 -24 -276 6 -370 75
-240 230 -416 440 -498 94 -36 216 -36 364 1 161 40 180 38 243 -24 43 -42 62
-54 110 -65 101 -24 152 -14 173 33 6 13 11 80 11 154 0 183 18 215 140 254
30 10 63 24 73 33 28 25 21 84 -19 163 -31 62 -41 73 -81 91 -27 12 -78 22
-124 25 -44 3 -79 8 -79 11 0 3 6 13 14 21 8 9 26 54 40 101 14 47 36 100 48
119 13 19 31 46 40 60 39 57 8 237 -51 300 -40 43 -96 42 -165 -2z m-350 -138
c228 -42 308 -37 425 28 3 2 14 -23 23 -55 l16 -59 -33 -51 c-33 -48 -97 -189
-97 -212 0 -6 -10 -10 -21 -8 -17 2 -26 17 -40 63 -32 104 -96 152 -243 181
-72 14 -95 15 -140 5 -182 -41 -292 -242 -257 -468 33 -216 140 -323 322 -323
186 0 307 80 259 171 -14 25 -82 59 -120 59 -23 0 -30 5 -30 19 0 28 87 41
311 48 l186 6 22 -32 c13 -18 22 -33 20 -35 -2 -1 -26 -11 -53 -21 -27 -10
-68 -36 -90 -59 -58 -57 -76 -120 -76 -256 0 -107 0 -108 -22 -102 -13 3 -38
22 -56 43 -17 20 -53 47 -78 59 -40 20 -57 22 -127 17 -45 -3 -129 -17 -187
-31 -126 -31 -159 -32 -241 -6 -159 49 -309 208 -367 387 -71 217 -10 464 144
582 116 88 267 102 550 50z m22 -243 c95 -26 125 -54 142 -132 7 -31 21 -60
36 -75 l25 -23 -102 -17 c-63 -11 -112 -25 -128 -37 -55 -41 -87 -145 -68
-216 8 -28 7 -29 -23 -22 -84 16 -138 103 -147 235 -7 101 14 176 65 233 61
67 105 79 200 54z"/>
<path d="M2073 5409 c-76 -22 -159 -202 -123 -269 5 -10 49 -35 97 -55 49 -20
98 -45 111 -55 l23 -19 -28 -48 c-15 -26 -54 -79 -86 -117 -32 -39 -61 -83
-64 -98 -3 -18 -12 -28 -23 -28 -26 0 -85 -26 -100 -44 -7 -9 -18 -16 -25 -16
-7 0 -51 64 -96 143 -46 78 -122 201 -170 274 -52 79 -94 153 -103 186 -31
106 -50 111 -436 110 -185 -1 -316 -5 -332 -12 -50 -19 -138 -135 -138 -183 0
-70 61 -129 153 -148 31 -6 57 -13 57 -15 0 -12 -56 -181 -81 -243 -16 -40
-29 -91 -29 -114 0 -33 -6 -49 -29 -73 -36 -38 -101 -194 -198 -480 -80 -236
-148 -382 -213 -457 -22 -25 -74 -72 -115 -102 -58 -44 -77 -65 -86 -94 -19
-66 21 -164 83 -202 50 -30 90 -25 165 20 113 68 212 89 411 90 190 0 248 28
246 118 -1 58 -32 121 -92 185 -44 48 -44 50 -38 102 7 63 44 170 133 390 92
224 95 235 90 278 -3 20 -2 37 3 37 15 0 63 56 78 90 l14 35 30 -35 c152 -180
287 -479 378 -840 45 -174 51 -214 59 -353 6 -118 9 -129 31 -151 32 -30 157
-96 183 -96 38 0 102 50 177 138 85 101 152 158 227 196 64 32 83 65 83 144 0
78 -25 168 -96 342 -55 137 -58 150 -59 230 0 74 4 92 27 135 15 28 37 71 49
96 17 36 30 49 56 57 l35 11 117 -239 c138 -279 198 -443 181 -494 -12 -38
-55 -85 -151 -168 -37 -32 -69 -69 -73 -83 -22 -87 95 -225 191 -225 15 0 57
18 93 40 129 79 298 89 570 34 88 -18 169 -28 232 -28 88 -1 98 1 122 23 34
32 60 112 53 168 -8 72 -37 102 -198 203 -87 55 -113 91 -144 206 -13 49 -31
109 -39 133 -9 24 -15 46 -13 48 2 2 88 6 192 10 216 7 222 10 264 105 64 144
70 154 105 171 19 9 42 28 52 42 21 32 30 26 38 -26 5 -29 1 -55 -10 -85 -10
-26 -14 -54 -10 -69 10 -41 93 -123 136 -136 39 -12 39 -12 125 35 43 23 154
21 251 -6 43 -11 100 -23 125 -25 41 -4 50 -1 84 28 80 71 85 138 18 241 -66
103 -165 314 -208 443 -38 112 -105 367 -105 396 0 24 -76 106 -125 135 -73
42 -101 46 -173 24 -91 -28 -240 -27 -414 4 -286 51 -315 48 -392 -51 -54 -67
-69 -111 -55 -153 13 -37 32 -48 157 -94 56 -21 102 -42 102 -47 0 -4 -9 -10
-19 -14 -31 -9 -79 -65 -92 -104 -22 -68 -72 -164 -126 -244 -30 -44 -65 -101
-77 -128 l-23 -48 -34 72 c-18 40 -59 119 -90 177 -102 189 -140 331 -118 440
15 75 8 101 -42 155 -67 73 -130 91 -214 60 -56 -20 -178 -18 -325 5 -139 22
-133 22 -177 9z m204 -150 c117 -12 260 -8 335 11 41 11 51 10 73 -4 23 -15
25 -21 18 -54 -29 -140 16 -323 130 -531 145 -263 311 -659 362 -864 24 -94
69 -147 196 -234 126 -86 140 -100 128 -131 -6 -16 -14 -22 -26 -18 -296 91
-688 85 -869 -13 l-53 -28 -27 28 -26 28 95 91 c142 136 159 185 112 326 -58
174 -309 702 -346 727 -30 21 -71 22 -111 1 l-30 -16 -50 49 c-74 72 -75 76
-30 125 48 53 113 148 142 209 40 82 10 129 -129 205 -50 27 -91 54 -91 60 0
6 9 23 20 37 17 22 25 25 45 17 13 -5 72 -14 132 -21z m1238 -10 c176 -28 442
-30 519 -6 l50 16 52 -44 c46 -40 52 -50 63 -106 51 -258 178 -588 302 -785
60 -95 53 -105 -53 -72 -106 33 -293 33 -358 1 -44 -22 -45 -22 -63 -4 -17 17
-18 24 -7 73 11 46 10 68 -4 139 -32 160 -134 464 -175 519 -23 32 -277 142
-539 235 -23 8 29 66 53 60 11 -3 83 -15 160 -26z m-2319 -15 l160 -6 17 -43
c8 -24 56 -104 105 -177 49 -73 126 -196 170 -273 85 -148 166 -265 183 -265
6 0 41 27 77 60 37 33 74 60 83 60 19 0 119 -103 119 -122 0 -8 -11 -29 -25
-48 -49 -67 -69 -136 -69 -245 0 -91 3 -110 37 -205 80 -222 115 -326 122
-361 6 -34 5 -37 -21 -43 -54 -14 -120 -62 -215 -156 -53 -52 -105 -108 -115
-123 l-19 -28 -40 22 -40 22 -1 101 c-2 115 -27 247 -84 447 -107 374 -266
687 -430 843 -93 88 -138 77 -195 -47 -15 -32 -33 -61 -40 -63 -7 -3 -47 11
-90 31 -90 41 -88 17 -16 225 62 176 66 226 21 263 -27 23 -118 57 -152 57
-28 0 -27 13 1 49 l29 37 134 -3 c73 -2 205 -6 294 -9z m2576 -415 c32 -86 32
-82 16 -73 -7 4 -28 10 -47 13 l-35 6 0 77 c-1 75 0 77 19 64 11 -7 32 -47 47
-87z m-259 65 c80 -41 81 -54 11 -202 -40 -85 -54 -132 -38 -132 3 0 18 8 32
19 65 45 171 78 206 65 17 -7 46 -75 46 -109 0 -18 -11 -32 -39 -49 -49 -31
-73 -65 -112 -158 -17 -40 -34 -76 -38 -79 -3 -4 -81 -9 -173 -12 l-168 -6
-21 41 c-11 22 -23 64 -26 92 -9 86 6 121 121 291 21 32 55 97 75 144 20 47
40 92 44 99 11 17 42 15 80 -4z m-2679 -420 c42 -20 76 -42 76 -50 0 -7 -15
-48 -34 -91 -64 -145 -158 -397 -178 -477 -35 -136 -11 -226 75 -281 25 -16
46 -37 46 -46 1 -15 -19 -17 -156 -22 -185 -5 -274 -26 -396 -89 -64 -34 -80
-39 -88 -27 -15 25 -10 36 31 64 79 55 164 157 217 261 47 91 146 341 188 474
10 30 38 105 62 165 25 61 49 120 54 133 5 12 13 22 18 22 5 0 43 -16 85 -36z"/>
<path d="M8227 3959 c-22 -13 -47 -61 -47 -91 0 -34 27 -68 67 -85 31 -12 38
-12 71 4 50 24 68 63 53 114 -17 58 -92 88 -144 58z m111 -32 c49 -45 11 -137
-58 -137 -87 0 -111 127 -29 159 30 12 57 5 87 -22z"/>
<path d="M8232 3917 c-12 -13 -22 -31 -22 -41 0 -45 45 -81 89 -69 22 6 29 23
10 23 -7 0 -18 8 -25 18 -13 16 -13 16 -14 0 0 -10 -7 -18 -15 -18 -11 0 -15
12 -15 45 0 45 0 45 35 45 38 0 55 -21 36 -43 -8 -10 -7 -19 4 -33 13 -16 16
-17 25 -4 15 23 12 45 -11 74 -26 33 -68 34 -97 3z"/>
<path d="M8270 3895 c0 -8 5 -15 10 -15 6 0 10 7 10 15 0 8 -4 15 -10 15 -5 0
-10 -7 -10 -15z"/>
<path d="M3729 3888 c-5 -9 -9 -51 -9 -92 0 -74 1 -76 27 -82 14 -4 39 -2 55
4 l28 10 0 -104 c0 -94 -2 -104 -21 -114 -17 -9 -20 -19 -17 -58 l3 -47 124
-3 c82 -2 128 1 137 9 22 18 18 86 -6 101 -18 11 -20 24 -20 116 0 102 0 103
21 91 12 -6 37 -9 55 -6 l34 6 0 -105 c0 -80 -4 -109 -15 -120 -18 -19 -19
-54 -2 -77 11 -16 33 -17 212 -15 l200 3 3 33 3 33 34 -30 c53 -46 123 -61
196 -41 39 11 129 84 129 104 0 7 -13 25 -29 40 l-30 28 -29 -21 c-17 -11 -40
-21 -53 -21 -33 0 -17 10 59 40 58 22 67 29 70 53 4 37 -39 110 -81 136 -96
59 -216 22 -271 -84 l-16 -30 0 30 c0 77 -79 131 -157 107 -43 -13 -52 -9 -35
18 18 29 16 99 -3 106 -9 4 -53 -7 -99 -23 l-84 -29 -8 25 -9 25 -194 1 c-171
0 -194 -2 -202 -17z m373 -23 c4 -5 8 -34 8 -62 0 -50 -1 -53 -25 -53 -15 0
-25 6 -25 14 0 14 -36 46 -52 46 -5 0 -8 -72 -8 -161 0 -152 1 -161 20 -166
13 -3 20 -14 20 -29 0 -24 -1 -24 -110 -24 -109 0 -110 0 -110 24 0 15 7 26
20 29 19 5 20 14 20 166 0 89 -3 161 -8 161 -16 0 -52 -32 -52 -46 0 -8 -10
-14 -25 -14 -24 0 -25 3 -25 58 0 32 2 61 4 63 9 9 341 4 348 -6z m199 -33
c-6 -2 -11 -29 -11 -62 l0 -59 36 21 c52 30 111 28 141 -6 21 -25 23 -36 23
-142 0 -69 4 -114 10 -114 6 0 10 -9 10 -20 0 -18 -7 -20 -80 -20 -73 0 -80 2
-80 20 0 11 5 20 10 20 6 0 10 38 10 94 0 107 -11 128 -55 108 -24 -11 -25
-15 -25 -107 0 -57 4 -95 10 -95 6 0 10 -9 10 -20 0 -18 -7 -20 -80 -20 -73 0
-80 2 -80 20 0 11 5 20 10 20 6 0 10 60 10 161 0 112 -3 158 -11 153 -7 -4 -9
2 -7 17 2 20 16 29 78 50 75 26 75 26 78 6 2 -12 -1 -23 -7 -25z m489 -101
c32 -23 72 -81 68 -100 -2 -8 -38 -27 -86 -44 -86 -31 -97 -45 -60 -71 28 -20
65 -20 102 -1 19 10 33 12 39 6 16 -16 1 -38 -44 -68 -54 -36 -142 -39 -185
-7 -47 35 -67 70 -72 127 -4 56 18 118 52 146 49 41 137 46 186 12z m-450
-161 c0 -40 -4 -70 -10 -70 -6 0 -10 30 -10 70 0 40 4 70 10 70 6 0 10 -30 10
-70z"/>
<path d="M4657 3678 c-7 -25 1 -68 13 -68 21 0 70 24 70 34 0 47 -72 76 -83
34z"/>
<path d="M5217 3896 c-133 -48 -210 -167 -193 -298 12 -86 50 -143 121 -181
52 -28 174 -30 221 -5 28 15 33 16 44 3 15 -18 71 -20 88 -3 7 7 12 20 12 31
0 16 5 14 30 -11 35 -35 76 -47 128 -37 20 4 78 8 127 9 86 1 90 2 93 24 l4
23 23 -25 c32 -34 88 -43 144 -23 30 11 49 13 57 6 7 -5 92 -8 210 -7 l199 3
3 33 3 33 34 -30 c35 -30 89 -51 136 -51 35 0 115 28 130 46 10 12 14 11 23
-8 11 -21 19 -23 110 -26 64 -2 103 1 112 9 18 15 18 64 -1 83 -10 9 -15 34
-15 70 l0 55 32 -11 c28 -10 33 -9 50 12 18 22 18 22 18 -48 0 -39 -4 -74 -10
-77 -14 -9 -12 -71 3 -83 8 -7 113 -11 307 -12 249 0 296 2 310 15 15 14 18
14 30 0 7 -9 14 -29 15 -46 6 -72 102 -108 209 -78 93 26 128 121 67 178 l-30
28 31 31 c26 25 32 41 36 86 3 40 0 63 -11 79 -12 19 -13 32 -4 71 10 44 9 50
-9 63 -24 18 -83 9 -104 -16 -10 -11 -36 -20 -74 -24 -69 -7 -131 -44 -150
-89 l-13 -31 -12 36 c-22 65 -96 101 -162 78 -23 -8 -36 -8 -45 0 -9 7 -34 4
-91 -11 -43 -12 -84 -27 -90 -32 -15 -12 -17 2 -14 64 4 57 -27 82 -92 75 -39
-3 -56 -11 -74 -31 -13 -15 -23 -35 -23 -45 0 -17 -8 -18 -76 -16 -90 4 -200
-23 -226 -56 -10 -12 -18 -16 -18 -10 0 17 -71 59 -111 66 -75 14 -160 -30
-199 -104 l-19 -36 -1 30 c-1 78 -79 131 -157 107 -43 -13 -52 -9 -35 18 18
29 16 99 -4 107 -8 3 -56 -10 -107 -28 -88 -33 -92 -36 -95 -67 -3 -25 -8 -32
-24 -32 -16 0 -19 5 -15 23 8 31 -2 44 -44 52 -32 6 -38 3 -63 -29 -15 -20
-45 -45 -67 -56 -21 -11 -39 -25 -39 -31 0 -6 -14 1 -30 15 -28 23 -71 34
-145 36 -16 0 -45 2 -63 3 -33 2 -35 0 -58 -62 -14 -36 -23 -72 -22 -80 1 -9
-6 -27 -16 -41 l-18 -25 6 53 c4 32 2 60 -5 73 -9 19 -17 21 -55 15 -24 -3
-44 -4 -44 -1 0 2 20 18 45 35 25 18 45 39 45 49 0 28 -39 71 -65 71 -12 0
-39 7 -58 15 -44 18 -109 19 -160 1z m161 -36 c23 -10 49 -17 56 -14 21 8 43
-36 25 -47 -8 -4 -39 -23 -69 -43 -42 -26 -58 -32 -68 -23 -7 6 -11 19 -8 30
2 10 2 25 -1 33 -7 19 -68 18 -87 -1 -38 -39 -43 -153 -10 -218 18 -34 70 -67
107 -67 27 0 27 1 27 65 l0 65 -40 0 c-36 0 -40 3 -40 24 0 24 1 25 103 28 56
2 104 1 107 -2 3 -3 4 -60 2 -128 -3 -101 -7 -124 -19 -129 -10 -4 -23 2 -34
16 l-18 22 -43 -23 c-62 -32 -158 -32 -216 2 -138 78 -128 303 16 387 78 46
144 53 210 23z m913 -28 c-6 -2 -11 -29 -11 -64 l0 -60 36 22 c53 33 110 32
140 -3 22 -26 24 -36 24 -143 0 -69 4 -114 10 -114 6 0 10 -9 10 -20 0 -18 -7
-20 -80 -20 -73 0 -80 2 -80 20 0 11 5 20 10 20 6 0 10 38 10 94 0 107 -11
128 -55 108 -24 -11 -25 -15 -25 -107 0 -57 4 -95 10 -95 6 0 10 -9 10 -20 0
-18 -7 -20 -80 -20 -73 0 -80 2 -80 20 0 11 5 20 10 20 6 0 10 60 10 161 0
112 -3 158 -11 153 -7 -4 -9 2 -7 17 2 18 17 28 78 50 75 27 75 27 78 6 2 -12
-1 -23 -7 -25z m1017 6 c29 -29 2 -70 -54 -82 -33 -7 -64 12 -64 39 0 41 88
73 118 43z m-1284 -14 c10 -4 16 -18 16 -40 0 -29 3 -34 24 -34 31 0 36 -8 25
-37 -5 -14 -17 -23 -29 -23 -20 0 -21 -5 -18 -97 3 -97 3 -98 28 -98 23 0 39
-11 40 -27 0 -3 -20 -16 -45 -28 -33 -16 -55 -20 -80 -16 -55 11 -65 35 -65
158 0 89 -3 108 -15 108 -32 0 -15 40 26 60 22 12 48 34 57 51 9 16 18 29 19
29 1 0 8 -3 17 -6z m2062 -40 c-3 -9 -6 -22 -6 -31 0 -9 -6 -13 -14 -10 -27
11 -25 -6 4 -40 60 -67 31 -156 -62 -191 -52 -20 -52 -24 3 -36 43 -9 79 -44
79 -76 0 -81 -175 -122 -229 -53 -21 26 -18 50 7 70 13 11 13 13 -1 19 -10 3
-23 4 -31 1 -8 -3 -24 5 -36 18 l-21 23 50 12 c28 7 51 15 51 19 0 3 -12 12
-28 18 -41 19 -66 66 -59 116 10 75 90 124 178 111 33 -6 37 -4 43 20 5 22 12
26 42 26 29 0 35 -3 30 -16z m-2806 -33 c0 -20 -6 -30 -20 -34 -16 -4 -20 -14
-20 -44 0 -46 14 -63 52 -63 24 0 28 -4 28 -28 0 -16 -3 -31 -6 -35 -13 -12
-61 23 -74 53 -16 39 -17 129 -1 158 17 32 41 28 41 -7z m410 4 c88 -3 98 -5
124 -31 25 -26 26 -31 26 -135 0 -61 4 -110 10 -114 6 -3 10 -15 10 -26 0 -17
-7 -19 -65 -19 -48 0 -65 3 -65 14 0 10 -9 9 -40 -6 -78 -39 -153 3 -153 85 0
78 46 117 140 117 40 0 44 2 41 23 -4 31 -57 36 -83 7 -18 -20 -50 -27 -58
-12 -3 4 5 31 16 60 16 42 23 51 36 45 9 -4 36 -8 61 -8z m1090 -24 c33 -23
71 -81 68 -100 -2 -10 -36 -28 -86 -45 -45 -17 -82 -36 -82 -42 0 -19 41 -44
70 -44 14 0 38 7 54 15 19 10 33 12 39 6 16 -16 1 -38 -44 -68 -34 -22 -53
-28 -100 -28 -62 0 -94 17 -132 67 -41 55 -28 177 23 223 50 45 139 53 190 16z
m369 13 c3 -2 -2 -25 -10 -52 -14 -44 -18 -47 -50 -48 -19 0 -40 -1 -46 -2 -9
-2 -13 -27 -13 -87 0 -71 3 -85 16 -85 9 0 14 -7 12 -17 -3 -15 -16 -18 -86
-21 -69 -2 -83 0 -89 14 -4 10 0 20 10 26 14 7 17 26 17 108 0 64 -4 100 -11
100 -6 0 -9 10 -7 21 2 16 15 25 48 35 65 20 80 18 80 -8 1 -22 1 -22 12 -3 6
11 16 23 21 26 9 7 88 0 96 -7z m543 -6 c25 -12 38 -71 38 -175 0 -61 4 -93
12 -95 6 -2 9 -12 5 -21 -5 -14 -21 -17 -87 -17 -72 0 -80 2 -80 19 0 10 7 21
15 25 22 8 21 168 -1 190 -19 20 -24 20 -52 0 -20 -14 -22 -24 -22 -100 0 -66
3 -86 15 -90 8 -4 15 -15 15 -25 0 -17 -8 -19 -85 -19 -78 0 -85 2 -85 20 0
11 5 20 10 20 6 0 10 42 10 105 0 63 -4 105 -10 105 -5 0 -10 8 -10 18 0 14
14 23 60 35 76 21 80 21 80 -3 0 -24 13 -26 30 -5 26 31 95 38 142 13z m-382
-123 c0 -114 2 -135 17 -143 10 -6 14 -16 10 -26 -5 -13 -22 -16 -87 -16 -72
0 -80 2 -80 19 0 10 7 21 15 25 12 4 15 25 15 101 0 76 -3 97 -15 101 -8 4
-15 14 -15 24 0 12 15 21 53 32 93 28 87 36 87 -117z m-1182 -90 c-2 -2 -15
-1 -30 2 -27 5 -28 8 -28 68 0 55 3 63 21 68 11 3 24 16 27 29 4 13 8 -17 10
-71 1 -51 1 -95 0 -96z m-238 54 c0 -51 -4 -78 -10 -74 -5 3 -10 40 -10 81 0
43 4 74 10 74 6 0 10 -34 10 -81z m1480 -5 c0 -43 -4 -74 -10 -74 -6 0 -10 34
-10 81 0 51 4 78 10 74 6 -3 10 -40 10 -81z m-1040 -4 c0 -40 -4 -70 -10 -70
-6 0 -10 30 -10 70 0 40 4 70 10 70 6 0 10 -30 10 -70z m1240 -1 c0 -44 -4
-68 -10 -64 -18 11 -12 135 7 135 2 0 3 -32 3 -71z m-700 -4 c0 -23 -2 -24
-20 -13 -16 10 -25 9 -49 -5 -28 -16 -82 -24 -67 -10 7 8 115 51 129 52 4 1 7
-10 7 -24z m930 -50 c0 -3 -9 -5 -20 -5 -16 0 -20 7 -20 38 l0 37 20 -33 c11
-18 20 -35 20 -37z"/>
<path d="M7907 3704 c-12 -12 -8 -72 6 -107 17 -40 40 -59 61 -51 22 8 21 78
-2 124 -16 33 -49 50 -65 34z m48 -90 l5 -39 -14 30 c-18 36 -21 74 -6 59 6
-6 13 -28 15 -50z"/>
<path d="M7940 3381 c0 -25 4 -31 21 -31 16 0 20 5 17 27 -2 17 -10 29 -20 31
-14 3 -18 -3 -18 -27z"/>
<path d="M5669 3579 c-14 -14 -19 -28 -15 -42 3 -12 6 -25 6 -28 0 -11 29 -19
45 -13 11 4 15 21 15 55 0 55 -15 64 -51 28z"/>
<path d="M6651 3682 c-10 -18 -4 -72 9 -72 21 0 70 24 70 34 0 21 -31 56 -50
56 -11 0 -24 -8 -29 -18z"/>
</g>
</svg>
