<?xml version="1.0" standalone="no"?>
<!DOCTYPE svg PUBLIC "-//W3C//DTD SVG 20010904//EN"
 "http://www.w3.org/TR/2001/REC-SVG-20010904/DTD/svg10.dtd">
<svg version="1.0" xmlns="http://www.w3.org/2000/svg"
 width="700.000000pt" height="238.000000pt" viewBox="0 0 700.000000 238.000000"
 preserveAspectRatio="xMidYMid meet">

<g transform="translate(0.000000,238.000000) scale(0.100000,-0.100000)"
fill="currentColor" stroke="none">
<path d="M3573 2156 c-8 -14 -275 -229 -369 -296 -36 -26 -52 -46 -62 -75 -13
-42 -46 -76 -97 -100 -27 -13 -38 -12 -113 9 -45 13 -100 36 -120 50 -21 14
-46 26 -56 26 -10 0 -45 -24 -77 -54 -37 -34 -80 -62 -117 -77 -39 -15 -64
-32 -74 -50 -9 -15 -31 -32 -51 -38 -32 -11 -37 -10 -62 13 -29 27 -80 47
-111 45 -45 -5 -49 0 -51 50 -2 46 -16 75 -80 160 -9 12 -75 -33 -104 -71 -19
-23 -60 -68 -91 -100 -32 -31 -58 -60 -58 -65 0 -4 -20 -28 -44 -53 -24 -25
-60 -61 -79 -80 -19 -19 -50 -49 -69 -66 -45 -41 -71 -96 -76 -167 -4 -51 -8
-60 -41 -88 -62 -54 -170 -181 -229 -269 -31 -47 -72 -101 -91 -120 -20 -20
-57 -63 -84 -97 -87 -112 -269 -252 -417 -322 l-82 -38 54 4 c64 5 157 48 232
106 111 87 185 154 223 202 22 28 66 80 99 116 32 36 88 108 124 160 71 103
242 279 271 279 14 0 19 -7 19 -25 0 -25 14 -34 24 -16 13 20 -8 102 -31 127
-22 24 -23 30 -12 56 6 16 41 56 77 89 36 33 74 73 84 90 10 16 29 35 43 41
14 6 25 17 25 23 0 13 169 183 196 198 9 5 18 7 21 4 9 -10 8 -96 -2 -96 -5
-1 -10 9 -10 22 0 25 -27 34 -43 14 -9 -10 -9 -21 -1 -43 10 -26 7 -35 -25
-83 -20 -29 -36 -58 -36 -63 0 -6 12 -21 26 -35 18 -16 25 -32 23 -52 -3 -21
5 -35 33 -59 19 -18 50 -35 67 -38 38 -8 39 -20 6 -68 -14 -20 -25 -41 -25
-47 0 -19 40 11 57 44 l17 32 6 -30 c4 -16 12 -40 18 -52 16 -29 5 -52 -27
-59 -74 -15 -107 -28 -134 -55 -23 -24 -28 -36 -24 -59 5 -23 3 -28 -8 -24 -9
4 -16 -4 -21 -23 -9 -38 -20 -50 -52 -58 -72 -17 -142 -96 -142 -161 0 -18
-15 -43 -45 -75 -25 -26 -45 -55 -45 -63 0 -9 -9 -20 -20 -26 -12 -6 -20 -21
-20 -35 0 -28 17 -34 27 -9 3 8 11 13 18 10 8 -3 15 6 17 24 3 16 0 31 -6 33
-12 4 1 27 16 27 5 0 8 -6 5 -14 -3 -8 1 -22 8 -33 13 -16 14 -13 15 30 0 50
14 63 24 22 7 -27 26 -34 26 -9 0 8 -5 24 -11 36 -16 29 -2 34 20 7 28 -35 36
-18 21 50 -7 32 -9 65 -5 71 10 17 58 -97 52 -121 -3 -11 0 -19 5 -19 6 0 33
-13 60 -30 26 -16 51 -30 55 -30 12 0 -30 40 -48 45 -23 8 -25 25 -3 25 8 0
12 5 9 10 -3 6 -14 10 -24 10 -10 0 -25 8 -32 17 -13 15 -11 16 19 10 44 -9
40 5 -8 32 -22 12 -40 29 -40 37 0 18 14 18 30 -1 15 -18 30 -20 30 -4 0 7 10
20 21 30 18 15 20 21 9 34 -15 18 1 20 18 3 22 -22 25 1 3 28 -11 14 -18 31
-14 36 3 6 9 4 15 -6 5 -9 16 -16 23 -16 17 0 20 16 5 25 -5 3 -10 11 -10 17
0 6 8 4 18 -5 28 -26 35 -20 16 13 -20 32 -13 50 11 30 44 -36 78 -254 55
-349 -12 -50 -13 -52 -40 -46 -25 5 -32 1 -61 -39 -33 -47 -59 -63 -39 -25 21
38 4 43 -19 6 -12 -20 -25 -37 -27 -37 -3 0 -2 17 1 38 l5 37 -20 -40 c-11
-22 -21 -44 -23 -50 -3 -5 -8 -7 -12 -3 -4 4 -2 23 5 42 18 56 6 66 -18 16
-20 -41 -22 -31 -6 28 8 29 -12 29 -22 0 -4 -13 -6 -25 -5 -27 2 -2 -2 -7 -7
-10 -5 -3 -19 -27 -30 -53 -21 -49 -42 -63 -42 -29 0 11 -5 23 -10 26 -5 3
-10 1 -10 -4 0 -20 -19 -11 -34 17 l-15 27 -1 -25 c0 -14 7 -36 16 -48 8 -12
14 -28 11 -35 -2 -6 -12 5 -22 25 -19 38 -35 50 -35 25 0 -7 7 -23 16 -35 9
-13 13 -26 10 -29 -8 -8 -36 17 -36 31 0 7 -7 21 -16 32 -14 18 -15 16 -9 -24
3 -29 2 -41 -5 -37 -5 3 -10 12 -10 19 0 7 -7 21 -16 32 -15 18 -15 17 -10
-18 5 -37 -9 -53 -20 -23 -8 19 -26 20 -22 1 4 -20 -15 -21 -27 -2 -7 12 1 27
40 66 32 33 44 50 33 50 -9 0 -25 -11 -35 -23 -10 -13 -28 -29 -41 -36 -12 -6
-31 -30 -42 -51 -11 -22 -27 -40 -34 -40 -12 0 -126 -48 -126 -53 0 -10 211
11 230 22 14 9 68 18 127 21 95 7 107 10 195 55 104 53 172 79 239 90 24 4 63
16 85 26 38 17 45 26 74 96 18 43 42 109 53 147 10 39 30 86 42 105 13 20 33
60 46 90 20 47 37 65 127 137 57 45 131 97 165 115 34 18 88 59 121 90 l58 58
-7 70 c-9 86 2 111 48 111 29 0 35 5 46 35 8 23 29 47 58 68 76 53 133 112
139 145 3 17 11 33 18 35 6 3 61 44 121 92 172 138 235 185 247 185 6 0 8 -3
5 -7 -4 -3 2 -20 12 -37 10 -17 24 -53 30 -80 7 -27 21 -62 32 -77 10 -15 19
-32 19 -37 0 -6 12 -24 26 -41 27 -32 52 -38 85 -21 36 20 21 -13 -28 -57
l-46 -43 29 0 c49 0 73 11 76 34 3 19 5 18 19 -9 19 -39 48 -37 146 9 89 42
111 40 80 -9 -15 -23 -30 -34 -46 -35 -33 0 -100 -40 -94 -56 3 -9 -4 -12 -23
-11 -20 1 -29 -3 -29 -13 0 -24 -107 -30 -134 -8 -29 23 -26 29 9 22 36 -8 41
10 8 27 -35 19 -78 68 -72 83 3 8 -4 21 -16 29 -12 8 -18 20 -15 29 4 9 0 18
-9 21 -9 4 -13 13 -10 22 4 10 0 15 -13 15 -18 0 -19 -7 -18 -67 2 -84 18
-123 94 -223 64 -85 98 -159 85 -183 -5 -8 -37 -45 -71 -82 -52 -55 -63 -73
-63 -101 0 -28 -4 -34 -21 -34 -15 0 -19 -5 -15 -15 4 -11 -2 -15 -24 -15 -37
0 -47 -16 -25 -40 16 -18 15 -20 -31 -52 -26 -18 -63 -47 -82 -64 -34 -30 -34
-30 -18 -62 22 -43 20 -52 -10 -52 -25 0 -26 -2 -20 -36 4 -19 10 -42 13 -50
3 -8 1 -14 -5 -14 -5 0 -12 7 -16 15 -10 26 -44 18 -50 -13 -10 -43 -49 -84
-112 -117 -33 -16 -63 -40 -69 -52 -5 -13 -15 -23 -22 -23 -19 0 -27 -48 -14
-77 9 -20 9 -29 -1 -40 -7 -9 -20 -34 -29 -57 -11 -28 -28 -48 -55 -63 l-39
-23 75 1 c55 0 69 3 53 9 -34 14 -29 34 5 25 40 -11 112 -26 157 -32 37 -5 39
-4 20 10 -30 23 -13 29 35 12 38 -13 124 -21 93 -8 -28 11 -11 23 31 23 30 0
46 5 50 15 6 18 -5 20 -21 4 -8 -8 -23 -3 -57 21 -46 34 -56 51 -16 30 27 -14
72 -9 78 9 3 9 -1 11 -14 7 -25 -7 -53 8 -30 17 9 4 13 13 10 22 -4 10 0 15
12 15 27 0 5 17 -36 27 -20 5 -36 16 -38 26 -3 15 0 15 33 1 35 -14 75 -12 75
5 0 4 -17 12 -37 17 -49 12 -57 35 -9 27 46 -7 48 10 4 28 l-33 13 43 4 c41 3
61 22 23 22 -11 0 -23 5 -26 10 -4 6 5 10 19 10 16 0 26 6 26 15 0 45 66 -17
76 -71 8 -45 68 -127 119 -164 19 -14 35 -30 35 -36 0 -6 9 -19 20 -29 11 -10
25 -33 32 -51 11 -31 38 -48 38 -24 0 6 11 10 25 10 34 0 32 18 -2 26 -53 11
-63 15 -63 24 0 5 8 10 18 13 13 3 10 8 -15 23 -21 12 -31 25 -28 35 3 10 -6
21 -27 32 -28 13 -30 16 -11 16 16 1 21 6 17 16 -5 11 1 15 20 15 32 0 34 13
4 28 -22 10 -21 11 9 11 38 1 50 16 26 31 -14 9 -11 10 17 4 l35 -6 -19 21
c-27 30 -13 38 29 16 32 -18 66 -13 35 5 -36 20 -52 38 -49 49 3 9 20 1 48
-23 55 -46 65 -39 17 14 -34 38 -42 50 -32 50 3 0 17 -11 32 -25 15 -14 29
-24 31 -22 5 5 -13 97 -21 104 -4 4 -26 -12 -49 -35 -24 -23 -50 -42 -60 -42
-9 0 -17 -6 -17 -13 0 -8 -9 -22 -21 -33 -11 -10 -38 -37 -60 -59 l-38 -39
-23 20 c-13 12 -31 24 -40 27 -12 4 -18 17 -18 34 0 16 -7 39 -16 51 -8 12
-12 22 -8 22 4 0 -3 11 -15 24 l-23 25 22 -6 c28 -8 20 10 -22 45 -15 13 -28
29 -28 35 0 6 13 -2 29 -17 28 -26 31 -27 46 -12 9 9 13 16 9 16 -3 0 -1 7 6
15 10 12 16 13 28 3 13 -11 15 -9 9 20 -8 37 -4 39 30 12 37 -29 40 -18 8 25
-32 42 -26 59 9 26 44 -42 50 -12 6 35 -54 59 -56 83 -2 45 15 -11 38 -22 52
-26 l25 -7 -26 24 c-35 31 -99 114 -99 127 0 20 15 11 35 -20 12 -19 41 -40
75 -55 81 -36 240 -144 240 -162 0 -9 -7 -35 -16 -58 -16 -42 -16 -43 16 -103
18 -33 52 -78 76 -101 27 -25 44 -50 44 -64 0 -12 11 -33 25 -46 14 -13 25
-33 25 -46 0 -36 98 -75 225 -89 33 -3 82 -13 109 -21 27 -8 86 -14 131 -14
45 0 97 -6 116 -12 l34 -13 -45 -6 c-25 -3 89 -7 253 -7 176 -1 297 2 297 7 0
5 -17 15 -37 22 -21 7 -58 23 -82 36 -57 30 -70 29 -84 -7 -6 -16 -16 -30 -23
-30 -35 0 -113 35 -180 80 -42 29 -96 61 -120 72 -25 10 -51 29 -59 42 -9 13
-31 31 -50 42 -19 10 -37 26 -40 34 -9 27 -57 47 -101 43 -34 -4 -47 0 -87 31
-38 29 -47 33 -47 18 0 -46 63 -92 128 -92 46 0 78 -20 69 -43 -7 -19 31 -51
99 -86 34 -16 129 -109 121 -117 -3 -3 -224 15 -266 22 -26 4 -31 8 -20 15 23
15 -3 25 -106 44 -50 9 -105 25 -121 36 -16 10 -37 19 -46 19 -12 0 -29 22
-49 63 -17 34 -41 76 -53 92 -47 63 -35 57 37 -20 41 -44 72 -85 70 -92 -8
-20 40 -43 123 -58 43 -9 114 -27 157 -40 84 -27 149 -34 112 -13 -20 12 -96
30 -201 49 -94 17 -165 56 -187 101 -9 21 -21 38 -25 38 -14 0 -60 78 -52 87
5 4 -12 35 -37 68 -25 33 -52 75 -60 93 -7 17 -17 32 -22 32 -5 0 -11 9 -14
20 -3 12 -14 20 -26 20 -12 0 -38 16 -59 35 -44 41 -40 45 8 10 19 -14 43 -25
54 -25 18 0 18 2 -5 26 -13 15 -46 41 -72 59 -44 30 -82 76 -131 160 -17 28
-1 12 114 -117 28 -32 43 -40 80 -44 l45 -5 -38 24 c-55 35 -84 64 -135 137
-25 36 -57 77 -70 92 -14 15 -23 30 -20 33 3 3 39 -33 79 -82 127 -150 150
-168 188 -144 10 7 5 13 -21 25 -19 9 -47 29 -61 44 -41 43 -138 184 -132 190
3 4 35 -25 70 -63 49 -53 63 -75 60 -92 -6 -27 27 -53 67 -53 35 0 36 17 3 32
-32 15 -32 26 2 30 26 3 26 4 9 21 -10 9 -28 17 -40 17 -20 0 -43 23 -70 68
-12 20 0 14 44 -23 23 -19 49 -35 57 -35 23 0 -18 51 -87 107 -32 26 -59 51
-59 56 -1 4 13 7 30 7 27 0 30 2 19 15 -7 8 -23 15 -36 15 -33 0 -40 18 -9 26
32 8 33 24 0 24 -33 0 -32 16 0 24 40 10 18 27 -26 20 -51 -9 -50 -1 5 20 l44
17 56 -55 c31 -31 64 -56 74 -56 39 0 82 -22 82 -41 0 -25 -16 -24 -30 1 -14
26 -30 26 -30 0 0 -17 -3 -18 -25 -8 -27 12 -53 -1 -41 -21 9 -15 167 -61 200
-58 39 3 53 -21 35 -61 -16 -36 -17 -37 -43 -17 -23 17 -72 20 -82 4 -3 -6 5
-23 19 -37 14 -15 43 -58 64 -97 29 -52 44 -71 62 -73 13 -2 27 1 31 7 4 7 22
-9 46 -41 32 -43 46 -54 74 -56 18 -2 43 -10 53 -17 14 -10 26 -11 37 -5 10 5
20 6 24 3 3 -3 -4 -11 -17 -18 -12 -6 -21 -17 -19 -24 1 -8 -6 -9 -24 -5 -27
7 -27 7 -22 -40 5 -38 3 -44 -8 -35 -7 6 -16 26 -20 45 -5 25 -11 34 -26 34
-22 0 -228 137 -228 151 0 5 11 2 25 -7 37 -24 46 -6 11 20 -17 11 -40 31 -51
43 -32 33 -44 14 -31 -50 9 -40 20 -62 54 -95 23 -23 46 -42 50 -42 5 0 19
-11 32 -25 13 -14 29 -25 36 -25 7 0 26 -25 43 -55 32 -56 114 -130 157 -141
13 -4 39 -4 57 -1 51 7 177 -60 214 -115 34 -51 102 -89 216 -118 84 -21 111
-18 102 11 -5 16 -2 17 23 10 41 -12 87 -38 139 -77 40 -30 51 -34 107 -34 49
0 75 -6 122 -29 55 -28 69 -30 187 -33 70 -2 127 -2 127 0 0 8 -71 31 -118 37
-28 4 -50 11 -47 15 3 5 -21 18 -52 29 -32 11 -68 26 -80 33 -130 75 -160 97
-113 85 11 -3 22 -1 25 4 7 11 67 -13 173 -69 84 -45 106 -44 51 2 -41 35 -82
56 -148 76 -46 15 -55 22 -66 51 -7 19 -28 61 -49 93 -20 33 -36 63 -36 68 0
4 -6 8 -14 8 -7 0 -16 9 -19 19 -3 14 -11 18 -25 14 -14 -3 -22 1 -27 16 -3
12 -12 21 -19 21 -8 0 -19 6 -25 14 -7 8 -20 12 -29 9 -21 -5 -37 23 -48 83
-5 26 -4 35 5 30 6 -4 11 -14 11 -22 0 -8 3 -14 8 -15 4 0 22 -2 40 -3 17 -2
32 0 32 5 0 5 11 7 25 3 22 -5 25 -3 25 20 0 15 -6 26 -14 26 -7 0 -19 7 -27
16 -8 9 -25 14 -46 12 -21 -1 -37 3 -42 11 -5 8 -16 11 -24 8 -10 -4 -17 2
-21 19 -5 18 -13 24 -34 24 -30 0 -47 26 -58 90 l-5 35 55 -58 c44 -45 56 -53
56 -38 0 11 -13 36 -30 54 -19 22 -30 46 -30 64 0 16 -3 33 -7 37 -4 3 -6 28
-5 54 2 26 -4 74 -13 106 -8 32 -13 61 -11 63 11 12 62 -126 91 -247 10 -39
26 -75 40 -90 14 -15 25 -32 25 -39 0 -18 48 -60 100 -86 25 -13 71 -45 102
-72 38 -33 75 -54 109 -63 57 -16 88 -50 45 -50 -14 0 -44 7 -66 16 -30 12
-47 14 -63 7 -22 -10 -21 -11 8 -23 17 -7 45 -18 63 -26 18 -8 44 -14 59 -14
14 0 57 -10 94 -22 l68 -23 12 -55 c7 -30 16 -63 22 -74 6 -12 5 -22 -2 -29
-22 -22 -10 -37 47 -53 31 -9 74 -27 94 -40 22 -14 53 -24 74 -24 26 0 51 -11
88 -37 75 -53 75 -54 21 -47 -125 15 -230 50 -278 92 -14 12 -20 13 -30 3 -16
-17 38 -63 94 -80 127 -38 338 -65 552 -71 175 -4 214 -3 200 8 -10 7 -48 12
-92 12 -42 1 -94 7 -116 15 -21 8 -41 12 -44 10 -2 -3 -18 4 -35 14 -17 11
-60 23 -95 27 -51 5 -72 14 -110 42 -146 113 -175 133 -221 149 -43 15 -52 23
-69 63 -10 25 -22 65 -26 90 -8 52 -16 63 -69 102 -30 21 -50 28 -86 28 -27 0
-52 6 -58 13 -6 7 -16 47 -23 88 -14 95 -21 106 -68 114 -50 8 -56 16 -124
150 -31 61 -72 135 -91 166 -34 53 -39 57 -100 73 -38 11 -79 30 -98 47 -18
15 -54 43 -79 61 -26 18 -70 52 -99 76 -47 38 -57 42 -106 42 -39 0 -58 -5
-71 -19 -10 -10 -29 -22 -43 -26 -14 -4 -52 -33 -85 -64 -33 -32 -73 -65 -88
-74 -15 -10 -25 -22 -22 -27 14 -23 48 -5 126 66 79 71 161 124 193 124 7 0
39 -27 69 -60 31 -33 67 -65 81 -72 32 -14 34 -32 4 -23 -13 4 -44 29 -70 56
-59 63 -78 64 -72 7 10 -92 15 -106 39 -122 14 -9 25 -22 25 -30 0 -7 18 -47
40 -90 40 -74 43 -96 16 -96 -8 0 -19 -7 -26 -15 -10 -12 -6 -17 24 -32 20 -9
36 -24 36 -34 0 -9 3 -30 6 -47 5 -26 3 -31 -17 -34 -20 -2 -24 -9 -26 -43 -1
-22 -5 -51 -8 -66 -5 -20 -2 -27 18 -36 13 -6 37 -33 52 -60 15 -26 60 -90 99
-141 62 -81 74 -92 98 -89 22 3 38 -8 85 -56 32 -33 54 -58 48 -56 -5 2 -55
26 -110 52 -66 32 -115 50 -145 51 -64 4 -81 13 -78 44 3 23 -5 29 -72 58 -41
18 -83 35 -92 37 -12 4 -18 15 -18 37 0 17 -5 40 -10 51 -7 13 -7 19 0 19 12
0 14 67 1 74 -13 8 -21 -30 -21 -101 0 -35 -4 -63 -8 -63 -16 0 -75 65 -88 97
-19 44 -18 67 6 105 24 40 27 74 3 40 -21 -30 -28 -28 -53 13 -23 37 -65 65
-99 65 -24 0 -30 25 -17 63 9 22 6 40 -11 89 l-22 60 27 29 c20 22 33 28 52
24 22 -4 31 3 67 58 23 34 45 70 49 80 3 9 12 17 20 17 16 0 19 16 4 25 -16
10 -36 -11 -61 -61 -33 -69 -67 -106 -91 -98 -13 4 -28 -2 -44 -17 -13 -12
-27 -20 -30 -17 -3 3 -7 28 -8 55 -2 37 -11 60 -39 100 -39 54 -53 63 -93 63
-14 0 -24 6 -24 14 0 7 -13 30 -30 51 -16 21 -30 43 -30 50 0 19 -102 111
-132 118 -16 4 -37 1 -54 -8 -16 -8 -43 -15 -60 -15 -28 0 -34 6 -63 64 -33
68 -60 92 -107 98 -24 2 -34 13 -61 63 -17 33 -50 76 -72 96 -23 20 -41 41
-41 47 0 10 -23 22 -40 22 -5 0 -13 -6 -17 -14z m107 -232 c0 -8 -4 -12 -10
-9 -5 3 -10 10 -10 16 0 5 5 9 10 9 6 0 10 -7 10 -16z m205 -194 c11 -17 -5
-32 -21 -19 -8 6 -14 15 -14 20 0 12 27 11 35 -1z m-1096 -65 c17 -20 31 -47
31 -61 0 -14 11 -36 25 -50 28 -28 24 -56 -4 -29 -9 8 -28 24 -42 35 -20 15
-28 32 -33 70 -4 27 -11 50 -17 50 -6 0 -18 -18 -26 -40 -10 -26 -22 -40 -34
-40 -25 0 -49 -27 -49 -56 0 -14 -10 -44 -21 -66 -18 -36 -20 -47 -10 -73 15
-42 14 -60 -4 -75 -12 -10 -22 -10 -47 1 -18 7 -34 13 -36 15 -2 1 3 12 10 24
12 19 10 23 -14 41 -35 25 -35 36 -3 51 14 6 25 17 25 25 0 10 -9 9 -41 -4
-40 -16 -43 -15 -55 2 -20 27 -19 30 36 69 28 20 50 40 50 44 0 5 29 21 63 36
35 15 79 40 98 55 39 33 50 30 98 -24z m-659 -95 c0 -25 61 -66 128 -86 50
-15 60 -26 44 -50 -8 -12 -56 -13 -68 -1 -26 26 -47 -18 -24 -53 9 -13 11 -13
20 0 8 13 11 11 16 -8 5 -15 12 -21 22 -17 8 3 23 -2 33 -11 18 -16 19 -15 28
7 8 21 10 22 16 6 4 -9 34 -33 66 -53 35 -22 59 -44 59 -54 0 -10 21 -38 48
-64 26 -25 42 -46 37 -46 -6 0 -33 23 -60 50 -45 46 -85 65 -85 40 0 -6 11
-22 25 -36 29 -29 31 -36 10 -28 -8 4 -15 2 -15 -4 0 -5 7 -12 15 -16 23 -9
18 -25 -7 -18 -22 5 -22 -3 -3 -50 6 -14 2 -18 -17 -18 -13 0 -33 7 -44 15
-19 14 -18 14 4 15 12 0 22 4 22 9 0 5 -10 12 -22 16 l-23 7 25 7 c24 7 24 7
5 19 -15 9 -17 14 -7 20 15 10 4 22 -33 37 -18 7 -19 8 -2 12 14 4 16 8 6 19
-6 8 -18 14 -26 14 -9 0 -13 6 -9 15 3 10 -5 20 -24 30 -17 9 -30 19 -30 23 0
11 -61 32 -91 32 -28 0 -79 21 -79 33 0 9 -4 9 53 -8 44 -13 48 -13 45 1 -2 9
-23 24 -47 33 -53 19 -66 40 -21 33 44 -6 39 19 -10 52 -22 14 -40 31 -40 36
0 12 35 -4 45 -20 3 -6 10 -10 16 -10 16 0 10 23 -12 46 -12 12 -18 27 -14 33
10 18 25 13 25 -9z m624 -116 c36 -33 47 -64 23 -64 -7 0 -22 -7 -33 -15 -19
-15 -19 -15 5 -35 13 -12 31 -25 39 -29 8 -5 12 -13 8 -19 -4 -7 -22 -4 -53
10 -39 17 -52 19 -77 10 -16 -7 -31 -10 -34 -8 -8 9 29 66 43 66 16 0 20 12 8
24 -4 4 -8 23 -9 42 0 20 -7 39 -13 44 -10 6 -10 12 -2 28 6 11 11 29 11 39 0
11 6 25 12 31 10 10 15 2 24 -39 9 -38 21 -61 48 -85z m1051 36 c3 -6 -1 -7
-9 -4 -18 7 -21 14 -7 14 6 0 13 -4 16 -10z m-1155 -80 c0 -5 -2 -10 -4 -10
-3 0 -8 5 -11 10 -3 6 -1 10 4 10 6 0 11 -4 11 -10z m2430 -25 c0 -8 -4 -15
-10 -15 -5 0 -10 7 -10 15 0 8 5 15 10 15 6 0 10 -7 10 -15z m38 -27 c-2 -6
-10 -14 -16 -16 -7 -2 -10 2 -6 12 7 18 28 22 22 4z m52 -75 c0 -16 -5 -35
-10 -43 -7 -11 -10 -4 -10 28 0 23 5 42 10 42 6 0 10 -12 10 -27z m-185 -3 c3
-5 1 -10 -4 -10 -6 0 -11 5 -11 10 0 6 2 10 4 10 3 0 8 -4 11 -10z m215 -57
c0 -5 -5 -15 -10 -23 -8 -12 -10 -11 -10 8 0 12 5 22 10 22 6 0 10 -3 10 -7z
m-3549 -40 c-9 -16 -10 -14 -11 12 0 21 3 26 11 18 8 -8 8 -16 0 -30z m3570
-50 c-9 -16 -10 -15 -11 8 0 14 3 29 8 33 12 12 14 -22 3 -41z m-45 -11 c-11
-10 -15 4 -8 28 l7 25 3 -23 c2 -13 1 -26 -2 -30z m94 -14 c0 -7 -5 -20 -10
-28 -8 -12 -10 -9 -10 13 0 15 5 27 10 27 6 0 10 -6 10 -12z m-2880 -63 c17
-9 30 -22 30 -30 0 -21 -10 -18 -50 15 -38 32 -27 39 20 15z m2956 -31 c-3 -9
-6 -18 -6 -20 0 -2 -4 -4 -9 -4 -5 0 -7 9 -4 20 3 11 10 20 15 20 6 0 7 -7 4
-16z m-2987 -9 c23 -12 27 -19 23 -41 l-5 -27 -28 31 c-27 30 -37 52 -24 52 4
0 19 -7 34 -15z m2124 -4 c5 -22 -1 -33 -14 -25 -12 7 -12 44 0 44 5 0 11 -9
14 -19z m-2165 -44 c48 -49 53 -67 17 -67 -28 0 -40 -19 -50 -83 -3 -21 -11
-37 -16 -35 -11 4 -11 10 -2 46 4 19 -4 33 -38 68 -35 36 -41 47 -30 54 9 5
22 5 32 -1 35 -18 81 -4 50 15 -11 7 -21 46 -12 46 4 0 26 -19 49 -43z m3076
34 c8 -12 -3 -41 -15 -41 -5 0 -9 11 -9 25 0 25 14 34 24 16z m-310 -128 c4
-21 23 -66 42 -101 19 -34 34 -64 34 -66 0 -2 -11 1 -25 7 -20 9 -31 28 -48
84 -14 46 -28 73 -39 76 -12 4 -17 15 -16 46 l0 41 23 -24 c12 -13 26 -42 29
-63z m-526 -28 c6 -14 8 -25 3 -25 -4 0 -13 11 -19 25 -6 14 -8 25 -3 25 4 0
13 -11 19 -25z m-1052 -56 c21 -23 23 -29 9 -21 -25 13 -62 52 -48 52 5 0 22
-14 39 -31z m2134 21 c0 -5 -2 -10 -4 -10 -3 0 -8 5 -11 10 -3 6 -1 10 4 10 6
0 11 -4 11 -10z m-3405 -65 c16 -13 26 -27 22 -32 -4 -4 -22 7 -40 25 -37 37
-25 42 18 7z m1235 15 c0 -5 -2 -10 -4 -10 -3 0 -8 5 -11 10 -3 6 -1 10 4 10
6 0 11 -4 11 -10z m40 -24 c0 -11 -19 -15 -25 -6 -3 5 1 10 9 10 9 0 16 -2 16
-4z m-145 -55 c8 -16 20 -31 27 -34 7 -2 10 -8 5 -12 -4 -5 -23 9 -42 29 -40
44 -41 46 -20 46 8 0 21 -13 30 -29z m-26 -42 c13 -17 20 -34 16 -37 -7 -8
-55 43 -55 59 0 18 16 9 39 -22z m1965 -4 c9 -14 12 -25 7 -25 -12 0 -41 29
-41 41 0 17 18 9 34 -16z m-2017 -12 c7 -10 18 -27 25 -38 11 -20 11 -20 -11
0 -25 22 -46 55 -35 55 4 0 13 -8 21 -17z m-1061 -20 c-7 -7 -26 7 -26 19 0 6
6 6 15 -2 9 -7 13 -15 11 -17z m1039 -24 c22 -22 59 -52 83 -66 24 -14 41 -28
38 -30 -11 -11 -94 37 -128 74 -20 23 -44 46 -55 52 -17 10 -17 10 2 11 12 0
39 -18 60 -41z m-25 -46 c40 -37 57 -59 49 -64 -7 -4 -9 -14 -6 -23 4 -9 2
-16 -4 -16 -14 0 -59 50 -59 66 0 7 -13 29 -30 47 -16 19 -30 37 -30 41 0 17
25 1 80 -51z m2140 14 c0 -6 -9 -2 -20 8 -11 10 -20 23 -20 28 0 6 9 2 20 -8
11 -10 20 -23 20 -28z m-3290 -22 c-7 -8 -20 -15 -29 -15 -12 0 -10 5 9 20 28
21 39 18 20 -5z m2880 0 c26 -27 19 -31 -29 -14 -31 11 -37 19 -24 32 12 13
30 7 53 -18z m-1788 -28 c15 -23 35 -52 44 -64 26 -36 9 -27 -38 20 -24 24
-50 46 -58 49 -13 4 -13 7 -1 21 19 24 22 22 53 -26z m-1319 -55 c-3 -12 -9
-22 -14 -22 -12 0 -11 7 2 32 13 25 20 19 12 -10z m3442 -12 c3 -5 2 -10 -4
-10 -5 0 -13 5 -16 10 -3 6 -2 10 4 10 5 0 13 -4 16 -10z m-2096 -26 c22 -14
42 -33 45 -41 9 -22 -38 -9 -88 24 -30 19 -36 27 -25 34 20 13 26 12 68 -17z
m-63 -40 c18 -14 18 -15 -6 -8 -31 8 -50 24 -29 24 8 0 24 -7 35 -16z m3044
-30 c0 -2 -9 -4 -21 -4 -11 0 -18 4 -14 10 5 8 35 3 35 -6z"/>
<path d="M3547 1956 c-7 -16 1 -26 20 -26 7 0 13 9 13 20 0 23 -25 27 -33 6z"/>
<path d="M3563 1909 c-9 -9 -8 -17 0 -33 7 -11 13 -23 14 -25 1 -1 7 0 12 4 6
3 8 12 4 18 -4 7 -8 18 -9 25 -3 20 -9 23 -21 11z"/>
<path d="M3481 1820 c-13 -62 -14 -70 -2 -70 12 0 44 97 36 110 -13 21 -24 8
-34 -40z"/>
<path d="M3323 1770 c-30 -12 -58 -59 -88 -150 -29 -88 -49 -120 -74 -120 -9
0 -25 -6 -36 -13 -17 -13 -17 -15 6 -30 32 -23 46 -21 24 3 -16 18 -16 20 -2
20 33 0 73 58 96 137 26 89 50 128 86 137 14 4 25 11 25 16 0 12 -7 12 -37 0z"/>
<path d="M3396 1714 c-9 -24 -7 -72 3 -78 12 -8 21 18 21 60 0 35 -13 46 -24
18z"/>
<path d="M3510 1638 c1 -23 49 -123 50 -102 0 20 -31 113 -40 119 -6 3 -10 -4
-10 -17z"/>
<path d="M1997 1598 c-11 -23 -13 -34 -5 -37 14 -5 50 38 45 52 -7 23 -25 16
-40 -15z"/>
<path d="M3366 1584 c-3 -9 -6 -24 -6 -34 0 -11 -9 -24 -20 -30 -11 -6 -19
-14 -18 -18 1 -4 -5 -20 -14 -37 -8 -16 -18 -49 -21 -73 -5 -38 -4 -41 8 -26
11 16 15 16 29 5 28 -24 30 -2 3 23 -41 38 -34 62 7 31 38 -29 52 -15 16 15
-35 31 -35 38 1 19 33 -17 44 -5 19 19 l-24 22 35 0 c30 1 32 2 17 14 -13 10
-16 22 -11 49 6 37 -9 52 -21 21z"/>
<path d="M3566 1451 c5 -64 4 -73 -9 -63 -11 10 -16 7 -26 -14 -15 -34 -7 -42
19 -19 25 23 36 14 18 -14 -11 -18 -11 -23 2 -31 34 -21 36 75 4 172 l-14 43
6 -74z"/>
<path d="M3066 1471 c-10 -11 -29 -22 -42 -25 -30 -8 -44 -41 -44 -105 0 -59
-32 -185 -65 -260 l-25 -56 25 30 c14 17 25 35 25 42 0 7 32 31 70 53 39 22
70 43 70 45 0 3 -23 -4 -52 -15 -28 -11 -53 -18 -55 -16 -2 2 3 44 11 92 9 49
16 93 16 99 0 5 5 4 12 -3 22 -22 29 -12 12 18 -21 35 -11 54 12 22 22 -32 35
-27 22 9 -14 40 -4 48 26 20 13 -12 27 -18 30 -13 3 5 -1 16 -10 23 -10 8 -13
21 -9 36 7 28 -6 30 -29 4z"/>
<path d="M1961 1436 c-18 -21 -30 -72 -21 -86 6 -9 12 -6 23 11 31 50 29 112
-2 75z"/>
<path d="M2014 1325 c-11 -16 -14 -34 -9 -52 5 -23 4 -25 -9 -14 -8 7 -24 10
-36 6 -28 -9 -73 -70 -75 -105 -2 -16 -12 -42 -24 -59 -22 -30 -21 -81 1 -81
6 0 7 11 3 27 -6 27 -6 27 14 9 18 -16 21 -17 21 -3 0 9 -4 19 -10 22 -13 8
-12 16 5 39 14 18 15 18 34 -5 16 -19 20 -21 21 -7 0 9 -4 20 -10 23 -5 3 -15
16 -21 28 -11 21 -10 21 15 -2 34 -32 44 -21 16 18 -30 44 -15 61 21 22 15
-17 33 -31 40 -31 8 0 6 6 -4 18 -24 26 -21 39 3 17 27 -24 36 -13 15 19 -10
14 -13 26 -7 26 6 0 14 -4 17 -10 6 -10 45 -34 45 -27 0 2 -11 18 -25 37 -25
35 -31 50 -17 50 4 0 15 -15 26 -33 29 -50 30 -15 1 42 -14 28 -27 51 -30 51
-2 0 -12 -11 -21 -25z"/>
<path d="M3257 1313 c-11 -13 -17 -26 -14 -29 2 -3 12 7 21 22 23 33 17 39 -7
7z"/>
<path d="M4032 1308 c3 -7 24 -14 48 -16 39 -3 42 -2 31 12 -16 19 -85 22 -79
4z"/>
<path d="M3130 1220 c-9 -6 -10 -10 -3 -10 6 0 15 5 18 10 8 12 4 12 -15 0z"/>
<path d="M4662 1181 c-7 -21 -12 -49 -12 -62 1 -19 4 -15 15 15 7 21 18 43 23
48 11 11 5 38 -7 38 -5 0 -13 -17 -19 -39z"/>
<path d="M2150 1160 c0 -5 9 -10 20 -10 11 0 20 5 20 10 0 6 -9 10 -20 10 -11
0 -20 -4 -20 -10z"/>
<path d="M3416 1114 c-9 -22 -8 -24 9 -24 8 0 15 9 15 20 0 24 -15 27 -24 4z"/>
<path d="M1590 1005 c-25 -25 -60 -56 -78 -68 -19 -12 -49 -44 -68 -72 -19
-27 -50 -69 -69 -93 -19 -24 -35 -49 -35 -55 0 -20 61 47 105 115 27 41 57 73
77 84 31 16 138 114 138 128 0 18 -31 1 -70 -39z"/>
<path d="M1804 1042 c-7 -4 -19 -31 -28 -60 -8 -29 -29 -78 -46 -108 -41 -70
-34 -87 13 -35 29 32 37 50 37 79 0 21 11 54 25 77 32 52 32 69 -1 47z"/>
<path d="M2834 984 c-18 -14 -18 -15 4 -4 12 6 22 13 22 15 0 8 -5 6 -26 -11z"/>
<path d="M2719 900 c-36 -44 -61 -55 -34 -14 9 14 14 28 11 31 -12 12 -36 -9
-57 -48 -49 -97 -57 -159 -10 -86 11 17 21 27 21 21 0 -5 -13 -30 -28 -55 -15
-24 -34 -59 -41 -77 -13 -32 -73 -92 -91 -92 -5 0 -34 -22 -63 -49 -30 -26
-68 -56 -85 -66 -18 -11 -32 -29 -36 -47 -3 -15 -10 -28 -15 -28 -5 0 -7 9 -4
19 5 18 3 18 -32 7 -22 -8 -45 -26 -57 -45 l-21 -32 27 7 c63 16 -1 -27 -78
-51 l-41 -14 45 6 c25 4 65 15 90 25 46 20 110 73 110 93 0 12 148 133 202
165 24 14 50 47 84 106 27 47 73 124 102 171 28 47 52 87 52 89 0 15 -24 -2
-51 -36z"/>
<path d="M4120 935 c0 -3 9 -18 20 -33 11 -15 25 -54 31 -87 13 -73 34 -125
50 -125 7 0 8 7 4 18 -4 9 -16 49 -27 87 -10 39 -23 87 -29 108 -7 27 -15 37
-29 37 -11 0 -20 -2 -20 -5z"/>
<path d="M3875 851 c-8 -17 -20 -31 -25 -31 -6 0 -10 -6 -10 -12 -1 -7 -21
-28 -46 -46 -44 -32 -102 -107 -92 -118 9 -9 136 115 149 146 7 15 26 36 42
45 28 16 32 35 9 43 -6 2 -18 -11 -27 -27z"/>
<path d="M2564 842 c-27 -23 -54 -61 -54 -75 0 -2 13 -2 29 1 21 3 33 12 41
33 7 15 18 34 26 40 8 6 14 15 14 20 0 17 -25 8 -56 -19z"/>
<path d="M4203 853 c3 -10 10 -39 17 -65 7 -26 21 -55 32 -65 20 -18 21 -17
14 7 -6 22 -5 23 6 8 7 -9 18 -25 25 -35 11 -16 12 -15 12 9 1 35 -21 118 -30
118 -5 0 -11 -4 -14 -10 -12 -20 -25 -9 -25 20 0 24 -4 30 -21 30 -14 0 -19
-5 -16 -17z m67 -85 c0 -5 -4 -8 -10 -8 -5 0 -10 10 -10 23 0 18 2 19 10 7 5
-8 10 -18 10 -22z"/>
<path d="M1648 809 c-14 -19 -29 -40 -33 -47 -14 -25 33 6 51 33 26 39 10 52
-18 14z"/>
<path d="M3885 803 c-36 -39 -42 -53 -25 -53 16 0 90 71 84 81 -10 16 -25 9
-59 -28z"/>
<path d="M3205 821 c-7 -13 24 -43 36 -35 6 4 3 14 -7 25 -20 22 -21 22 -29
10z"/>
<path d="M3151 798 c-12 -12 -21 -26 -21 -31 0 -4 -10 -5 -21 -2 -13 5 -19 3
-15 -3 8 -13 -43 -22 -133 -22 l-76 0 -2 -55 c-3 -56 9 -73 22 -32 6 19 8 19
12 5 6 -24 24 -23 30 2 6 23 23 27 23 5 0 -27 18 -16 25 15 8 38 25 49 25 16
0 -35 11 -33 34 7 l20 32 6 -30 6 -30 17 39 c15 33 20 37 42 32 20 -5 25 -3
25 14 0 11 5 20 10 20 13 0 13 27 1 35 -6 3 -19 -5 -30 -17z"/>
<path d="M1356 698 c-20 -23 -36 -45 -36 -50 0 -25 40 10 75 65 27 42 1 32
-39 -15z"/>
<path d="M5498 683 l-37 -26 20 -28 c24 -34 54 -40 44 -9 -5 17 -2 20 20 20
20 0 26 4 21 15 -7 18 5 20 22 3 9 -9 12 -8 12 8 0 49 -45 56 -102 17z"/>
<path d="M5347 694 c-9 -9 47 -115 72 -138 19 -17 21 -17 21 -3 0 21 16 22 24
2 7 -18 26 -20 26 -2 0 27 -59 107 -79 107 -11 0 -23 9 -26 20 -6 19 -25 26
-38 14z"/>
<path d="M2880 602 c0 -4 -12 -13 -27 -20 -52 -24 -63 -37 -65 -82 -1 -34 -9
-52 -36 -82 -19 -21 -39 -38 -46 -38 -6 0 -38 -14 -71 -30 -33 -17 -53 -28
-45 -26 129 38 151 48 177 83 17 22 29 53 33 82 5 43 8 48 52 71 43 23 64 50
38 50 -5 0 -10 -3 -10 -8z"/>
<path d="M1501 567 c-18 -19 -51 -43 -73 -53 -30 -13 -45 -29 -62 -63 -18 -40
-31 -51 -96 -85 -61 -31 -90 -40 -155 -46 -79 -7 -171 -27 -163 -36 3 -2 29 0
58 6 29 5 81 10 116 10 50 0 70 5 99 24 20 14 48 27 63 31 39 9 55 23 92 83
23 38 45 59 79 76 51 26 85 59 79 76 -2 6 -18 -5 -37 -23z"/>
<path d="M3859 560 c-3 -8 -4 -34 -1 -58 3 -34 10 -45 33 -57 15 -8 34 -15 42
-15 16 0 77 -81 77 -102 0 -25 23 -38 69 -38 l46 0 -40 20 c-30 15 -47 34 -69
76 -29 56 -73 94 -108 94 -10 0 -18 8 -18 18 -1 29 -26 78 -31 62z"/>
<path d="M1643 523 c-7 -15 -11 -28 -9 -30 7 -7 36 28 36 43 0 23 -14 16 -27
-13z"/>
<path d="M4970 395 c0 -11 12 -15 44 -15 46 0 68 13 40 24 -32 12 -84 7 -84
-9z"/>
<path d="M4040 385 c0 -17 35 -55 51 -55 11 0 3 37 -13 58 -14 17 -38 15 -38
-3z"/>
<path d="M2113 355 c-15 -13 -22 -25 -15 -25 19 0 72 29 72 40 0 18 -28 10
-57 -15z"/>
<path d="M4120 345 c0 -24 41 -42 109 -49 l65 -6 -30 31 c-24 25 -35 30 -61
25 -18 -2 -35 0 -38 5 -10 15 -45 10 -45 -6z"/>
<path d="M5297 304 c3 -8 30 -14 68 -16 79 -4 71 9 -12 20 -47 7 -60 6 -56 -4z"/>
<path d="M5903 283 c9 -2 25 -2 35 0 9 3 1 5 -18 5 -19 0 -27 -2 -17 -5z"/>
</g>
</svg>
