<svg xmlns="http://www.w3.org/2000/svg" xmlns:xlink="http://www.w3.org/1999/xlink" width="500" zoomAndPan="magnify" viewBox="0 0 375 374.999991" height="500" preserveAspectRatio="xMidYMid meet" version="1.0"><defs><g/><clipPath id="id1"><path d="M 0.296875 0 L 375 0 L 375 375 L 0.296875 375 Z M 0.296875 0 " clip-rule="nonzero"/></clipPath></defs><g clip-path="url(#id1)"><path fill="#ffffff" d="M 360.558594 114.511719 C 351.117188 92.183594 337.59375 72.132812 320.378906 54.917969 C 303.15625 37.695312 283.105469 24.183594 260.785156 14.738281 C 237.664062 4.953125 213.105469 0 187.796875 0 C 162.480469 0 137.933594 4.953125 114.816406 14.738281 C 92.488281 24.183594 72.4375 37.703125 55.222656 54.917969 C 38.007812 72.132812 24.488281 92.191406 15.042969 114.511719 C 5.253906 137.628906 0.296875 162.183594 0.296875 187.5 C 0.296875 212.816406 5.253906 237.363281 15.035156 260.480469 C 24.480469 282.808594 38 302.859375 55.214844 320.074219 C 72.4375 337.296875 92.488281 350.8125 114.808594 360.253906 C 137.925781 370.03125 162.480469 374.992188 187.789062 374.992188 C 213.105469 374.992188 237.65625 370.039062 260.769531 360.253906 C 283.097656 350.8125 303.148438 337.289062 320.363281 320.074219 C 337.585938 302.851562 351.101562 282.800781 360.546875 260.480469 C 370.320312 237.363281 375.28125 212.808594 375.28125 187.5 C 375.289062 162.183594 370.335938 137.628906 360.558594 114.511719 Z M 360.207031 260.332031 C 350.785156 282.613281 337.285156 302.628906 320.101562 319.8125 C 302.917969 336.996094 282.910156 350.488281 260.621094 359.917969 C 237.550781 369.675781 213.046875 374.625 187.78125 374.625 C 162.519531 374.625 138.015625 369.675781 114.945312 359.917969 C 92.664062 350.496094 72.648438 336.996094 55.460938 319.8125 C 38.277344 302.628906 24.785156 282.621094 15.359375 260.332031 C 5.597656 237.257812 0.648438 212.753906 0.648438 187.492188 C 0.648438 162.230469 5.597656 137.726562 15.359375 114.65625 C 24.800781 92.378906 38.292969 72.363281 55.476562 55.179688 C 72.664062 37.996094 92.675781 24.503906 114.960938 15.074219 C 138.03125 5.316406 162.535156 0.367188 187.796875 0.367188 C 213.058594 0.367188 237.566406 5.316406 260.636719 15.074219 C 282.917969 24.496094 302.933594 37.988281 320.117188 55.179688 C 337.300781 72.363281 350.792969 92.378906 360.222656 114.664062 C 369.980469 137.734375 374.929688 162.238281 374.929688 187.5 C 374.914062 212.753906 369.96875 237.265625 360.207031 260.332031 Z M 360.207031 260.332031 " fill-opacity="1" fill-rule="nonzero"/></g><g fill="#ffffff" fill-opacity="1"><g transform="translate(219.133629, 298.930675)"><g><path d="M 28.601562 0 L 53.269531 0 L 53.269531 -1.96875 C 48.578125 -3.328125 47.214844 -6.808594 47.214844 -19.21875 L 47.214844 -47.972656 L 70.371094 -89.136719 C 76.425781 -99.882812 81.117188 -102.605469 85.203125 -103.96875 L 85.203125 -105.933594 L 67.191406 -105.933594 L 67.191406 -103.96875 C 72.945312 -102.90625 72.792969 -98.367188 67.648438 -89.136719 L 46.460938 -51.605469 L 25.425781 -89.136719 C 19.371094 -99.882812 17.554688 -102.605469 22.09375 -103.96875 L 22.09375 -105.933594 L -1.816406 -105.933594 L -1.816406 -103.96875 C 1.363281 -102.605469 5.75 -99.882812 11.652344 -89.136719 L 34.503906 -47.671875 L 34.503906 -19.21875 C 34.65625 -6.808594 33.140625 -3.328125 28.601562 -1.96875 Z M 28.601562 0 "/></g></g></g><g fill="#ffffff" fill-opacity="1"><g transform="translate(62.074601, 181.709175)"><g><path d="M 7.371094 0 L 25.941406 0 L 25.941406 -1.917969 C 19.457031 -3.683594 15.917969 -7.8125 15.917969 -24.617188 L 15.917969 -90.058594 L 53.652344 -28.003906 L 56.453125 -28.003906 L 93.890625 -91.238281 L 93.890625 -18.71875 C 93.890625 -6.632812 92.417969 -3.242188 87.996094 -1.917969 L 87.996094 0 L 111.875 0 L 111.875 -1.917969 C 107.304688 -3.242188 105.980469 -6.632812 105.980469 -18.71875 L 105.980469 -78.5625 C 105.980469 -95.367188 109.074219 -99.492188 114.96875 -101.261719 L 114.96875 -103.179688 L 98.3125 -103.179688 L 60.582031 -39.648438 L 22.109375 -103.179688 L 4.273438 -103.179688 L 4.273438 -101.261719 C 10.171875 -99.492188 13.265625 -95.367188 13.265625 -78.5625 L 13.265625 -18.71875 C 13.265625 -6.632812 11.9375 -3.242188 7.371094 -1.917969 Z M 7.371094 0 "/></g></g></g><path stroke-linecap="round" transform="matrix(1.212084, -1.893611, 1.843192, 1.179811, 115.803666, 299.939248)" fill="none" stroke-linejoin="miter" d="M 0.500203 0.000109548 L 117.593714 -0.00062115 " stroke="#ff8210" stroke-width="1" stroke-opacity="1" stroke-miterlimit="4"/></svg>